<mxfile host="drawio-plugin" modified="2022-10-26T04:37:07.217Z" agent="5.0 (Windows NT 6.2; Win64; x64) AppleWebKit/537.36 (KHTML, like Gecko) Chrome/89.0.4389.114 Safari/537.36" etag="4jv7zgTzGCtEkXL7sTeJ" version="15.5.4" type="embed"><diagram id="C5RBs43oDa-KdzZeNtuy" name="Page-1"><mxGraphModel dx="612" dy="494" grid="0" gridSize="10" guides="1" tooltips="1" connect="1" arrows="1" fold="1" page="0" pageScale="1" pageWidth="2336" pageHeight="1654" background="none" math="0" shadow="0"><root><mxCell id="WIyWlLk6GJQsqaUBKTNV-0"/><mxCell id="WIyWlLk6GJQsqaUBKTNV-1" parent="WIyWlLk6GJQsqaUBKTNV-0"/><mxCell id="zkfFHV4jXpPFQw0GAbJ--6" value="GameMediator" style="swimlane;fontStyle=0;align=center;verticalAlign=top;childLayout=stackLayout;horizontal=1;startSize=26;horizontalStack=0;resizeParent=1;resizeLast=0;collapsible=1;marginBottom=0;rounded=0;shadow=0;strokeWidth=1;" parent="WIyWlLk6GJQsqaUBKTNV-1" vertex="1"><mxGeometry x="773" y="90" width="278" height="268" as="geometry"><mxRectangle x="281" width="160" height="26" as="alternateBounds"/></mxGeometry></mxCell><mxCell id="zkfFHV4jXpPFQw0GAbJ--7" value="# field_: engine::Field*" style="text;align=left;verticalAlign=top;spacingLeft=4;spacingRight=4;overflow=hidden;rotatable=0;points=[[0,0.5],[1,0.5]];portConstraint=eastwest;" parent="zkfFHV4jXpPFQw0GAbJ--6" vertex="1"><mxGeometry y="26" width="278" height="26" as="geometry"/></mxCell><mxCell id="zkfFHV4jXpPFQw0GAbJ--8" value="# creature_manager_: engine::CreatureManager*" style="text;align=left;verticalAlign=top;spacingLeft=4;spacingRight=4;overflow=hidden;rotatable=0;points=[[0,0.5],[1,0.5]];portConstraint=eastwest;rounded=0;shadow=0;html=0;" parent="zkfFHV4jXpPFQw0GAbJ--6" vertex="1"><mxGeometry y="52" width="278" height="26" as="geometry"/></mxCell><mxCell id="X3iBoTwYunZCs_lj_990-169" value="# view_controller_: view::ViewController*" style="text;align=left;verticalAlign=top;spacingLeft=4;spacingRight=4;overflow=hidden;rotatable=0;points=[[0,0.5],[1,0.5]];portConstraint=eastwest;rounded=0;shadow=0;html=0;" parent="zkfFHV4jXpPFQw0GAbJ--6" vertex="1"><mxGeometry y="78" width="278" height="26" as="geometry"/></mxCell><mxCell id="X3iBoTwYunZCs_lj_990-0" value="# player_position_: Point" style="text;align=left;verticalAlign=top;spacingLeft=4;spacingRight=4;overflow=hidden;rotatable=0;points=[[0,0.5],[1,0.5]];portConstraint=eastwest;rounded=0;shadow=0;html=0;" parent="zkfFHV4jXpPFQw0GAbJ--6" vertex="1"><mxGeometry y="104" width="278" height="26" as="geometry"/></mxCell><mxCell id="zkfFHV4jXpPFQw0GAbJ--9" value="" style="line;html=1;strokeWidth=1;align=left;verticalAlign=middle;spacingTop=-1;spacingLeft=3;spacingRight=3;rotatable=0;labelPosition=right;points=[];portConstraint=eastwest;" parent="zkfFHV4jXpPFQw0GAbJ--6" vertex="1"><mxGeometry y="130" width="278" height="8" as="geometry"/></mxCell><mxCell id="zkfFHV4jXpPFQw0GAbJ--11" value="+ start(): void" style="text;align=left;verticalAlign=top;spacingLeft=4;spacingRight=4;overflow=hidden;rotatable=0;points=[[0,0.5],[1,0.5]];portConstraint=eastwest;" parent="zkfFHV4jXpPFQw0GAbJ--6" vertex="1"><mxGeometry y="138" width="278" height="26" as="geometry"/></mxCell><mxCell id="X3iBoTwYunZCs_lj_990-18" value="+ getField(): const engine::Field*" style="text;align=left;verticalAlign=top;spacingLeft=4;spacingRight=4;overflow=hidden;rotatable=0;points=[[0,0.5],[1,0.5]];portConstraint=eastwest;" parent="zkfFHV4jXpPFQw0GAbJ--6" vertex="1"><mxGeometry y="164" width="278" height="26" as="geometry"/></mxCell><mxCell id="X3iBoTwYunZCs_lj_990-167" value="+ movePlayer(engine::Directions): Point" style="text;align=left;verticalAlign=top;spacingLeft=4;spacingRight=4;overflow=hidden;rotatable=0;points=[[0,0.5],[1,0.5]];portConstraint=eastwest;" parent="zkfFHV4jXpPFQw0GAbJ--6" vertex="1"><mxGeometry y="190" width="278" height="26" as="geometry"/></mxCell><mxCell id="X3iBoTwYunZCs_lj_990-168" value="+ getPlayerPosition(): Point" style="text;align=left;verticalAlign=top;spacingLeft=4;spacingRight=4;overflow=hidden;rotatable=0;points=[[0,0.5],[1,0.5]];portConstraint=eastwest;" parent="zkfFHV4jXpPFQw0GAbJ--6" vertex="1"><mxGeometry y="216" width="278" height="26" as="geometry"/></mxCell><mxCell id="X3iBoTwYunZCs_lj_990-22" value="+ getCreature(Point): engine::CreatureWrapper" style="text;align=left;verticalAlign=top;spacingLeft=4;spacingRight=4;overflow=hidden;rotatable=0;points=[[0,0.5],[1,0.5]];portConstraint=eastwest;" parent="zkfFHV4jXpPFQw0GAbJ--6" vertex="1"><mxGeometry y="242" width="278" height="26" as="geometry"/></mxCell><mxCell id="X3iBoTwYunZCs_lj_990-3" value="view::ViewController" style="swimlane;fontStyle=0;align=center;verticalAlign=top;childLayout=stackLayout;horizontal=1;startSize=26;horizontalStack=0;resizeParent=1;resizeLast=0;collapsible=1;marginBottom=0;rounded=0;shadow=0;strokeWidth=1;" parent="WIyWlLk6GJQsqaUBKTNV-1" vertex="1"><mxGeometry x="170" y="90" width="266" height="164" as="geometry"><mxRectangle x="281" width="160" height="26" as="alternateBounds"/></mxGeometry></mxCell><mxCell id="X3iBoTwYunZCs_lj_990-4" value="# window_: sf::RenderWindow" style="text;align=left;verticalAlign=top;spacingLeft=4;spacingRight=4;overflow=hidden;rotatable=0;points=[[0,0.5],[1,0.5]];portConstraint=eastwest;" parent="X3iBoTwYunZCs_lj_990-3" vertex="1"><mxGeometry y="26" width="266" height="26" as="geometry"/></mxCell><mxCell id="X3iBoTwYunZCs_lj_990-5" value="# game_mediator_: GameMediator*" style="text;align=left;verticalAlign=top;spacingLeft=4;spacingRight=4;overflow=hidden;rotatable=0;points=[[0,0.5],[1,0.5]];portConstraint=eastwest;rounded=0;shadow=0;html=0;" parent="X3iBoTwYunZCs_lj_990-3" vertex="1"><mxGeometry y="52" width="266" height="26" as="geometry"/></mxCell><mxCell id="X3iBoTwYunZCs_lj_990-6" value="# keyboard_handler_: KeyboardHandler*" style="text;align=left;verticalAlign=top;spacingLeft=4;spacingRight=4;overflow=hidden;rotatable=0;points=[[0,0.5],[1,0.5]];portConstraint=eastwest;rounded=0;shadow=0;html=0;" parent="X3iBoTwYunZCs_lj_990-3" vertex="1"><mxGeometry y="78" width="266" height="26" as="geometry"/></mxCell><mxCell id="X3iBoTwYunZCs_lj_990-9" value="# draw_manager_: DrawManager*" style="text;align=left;verticalAlign=top;spacingLeft=4;spacingRight=4;overflow=hidden;rotatable=0;points=[[0,0.5],[1,0.5]];portConstraint=eastwest;rounded=0;shadow=0;html=0;" parent="X3iBoTwYunZCs_lj_990-3" vertex="1"><mxGeometry y="104" width="266" height="26" as="geometry"/></mxCell><mxCell id="X3iBoTwYunZCs_lj_990-7" value="" style="line;html=1;strokeWidth=1;align=left;verticalAlign=middle;spacingTop=-1;spacingLeft=3;spacingRight=3;rotatable=0;labelPosition=right;points=[];portConstraint=eastwest;" parent="X3iBoTwYunZCs_lj_990-3" vertex="1"><mxGeometry y="130" width="266" height="8" as="geometry"/></mxCell><mxCell id="X3iBoTwYunZCs_lj_990-8" value="+ start(): void" style="text;align=left;verticalAlign=top;spacingLeft=4;spacingRight=4;overflow=hidden;rotatable=0;points=[[0,0.5],[1,0.5]];portConstraint=eastwest;" parent="X3iBoTwYunZCs_lj_990-3" vertex="1"><mxGeometry y="138" width="266" height="26" as="geometry"/></mxCell><mxCell id="X3iBoTwYunZCs_lj_990-12" value="engine::CreatureManager" style="swimlane;fontStyle=0;align=center;verticalAlign=top;childLayout=stackLayout;horizontal=1;startSize=26;horizontalStack=0;resizeParent=1;resizeLast=0;collapsible=1;marginBottom=0;rounded=0;shadow=0;strokeWidth=1;" parent="WIyWlLk6GJQsqaUBKTNV-1" vertex="1"><mxGeometry x="1284" y="90" width="310" height="138" as="geometry"><mxRectangle x="281" width="160" height="26" as="alternateBounds"/></mxGeometry></mxCell><mxCell id="X3iBoTwYunZCs_lj_990-14" value="# creatures_: std::map&lt;Point, CreatureWrapper&gt;" style="text;align=left;verticalAlign=top;spacingLeft=4;spacingRight=4;overflow=hidden;rotatable=0;points=[[0,0.5],[1,0.5]];portConstraint=eastwest;rounded=0;shadow=0;html=0;" parent="X3iBoTwYunZCs_lj_990-12" vertex="1"><mxGeometry y="26" width="310" height="26" as="geometry"/></mxCell><mxCell id="X3iBoTwYunZCs_lj_990-17" value="" style="line;html=1;strokeWidth=1;align=left;verticalAlign=middle;spacingTop=-1;spacingLeft=3;spacingRight=3;rotatable=0;labelPosition=right;points=[];portConstraint=eastwest;" parent="X3iBoTwYunZCs_lj_990-12" vertex="1"><mxGeometry y="52" width="310" height="8" as="geometry"/></mxCell><mxCell id="X3iBoTwYunZCs_lj_990-153" value="+ addCreature(Point, Creature *): void" style="text;align=left;verticalAlign=top;spacingLeft=4;spacingRight=4;overflow=hidden;rotatable=0;points=[[0,0.5],[1,0.5]];portConstraint=eastwest;" parent="X3iBoTwYunZCs_lj_990-12" vertex="1"><mxGeometry y="60" width="310" height="26" as="geometry"/></mxCell><mxCell id="X3iBoTwYunZCs_lj_990-20" value="+ moveCreature(Point, Point, Directions): void" style="text;align=left;verticalAlign=top;spacingLeft=4;spacingRight=4;overflow=hidden;rotatable=0;points=[[0,0.5],[1,0.5]];portConstraint=eastwest;" parent="X3iBoTwYunZCs_lj_990-12" vertex="1"><mxGeometry y="86" width="310" height="26" as="geometry"/></mxCell><mxCell id="X3iBoTwYunZCs_lj_990-21" value="+ getCreature(Point): CreatureWrapper" style="text;align=left;verticalAlign=top;spacingLeft=4;spacingRight=4;overflow=hidden;rotatable=0;points=[[0,0.5],[1,0.5]];portConstraint=eastwest;" parent="X3iBoTwYunZCs_lj_990-12" vertex="1"><mxGeometry y="112" width="310" height="26" as="geometry"/></mxCell><mxCell id="X3iBoTwYunZCs_lj_990-24" value="engine::Field" style="swimlane;fontStyle=0;align=center;verticalAlign=top;childLayout=stackLayout;horizontal=1;startSize=26;horizontalStack=0;resizeParent=1;resizeLast=0;collapsible=1;marginBottom=0;rounded=0;shadow=0;strokeWidth=1;" parent="WIyWlLk6GJQsqaUBKTNV-1" vertex="1"><mxGeometry x="1122" y="417" width="310" height="216" as="geometry"><mxRectangle x="281" width="160" height="26" as="alternateBounds"/></mxGeometry></mxCell><mxCell id="X3iBoTwYunZCs_lj_990-25" value="# cells_: std::vector&lt;std::vector&lt;Cell*&gt;&gt; cells_" style="text;align=left;verticalAlign=top;spacingLeft=4;spacingRight=4;overflow=hidden;rotatable=0;points=[[0,0.5],[1,0.5]];portConstraint=eastwest;" parent="X3iBoTwYunZCs_lj_990-24" vertex="1"><mxGeometry y="26" width="310" height="26" as="geometry"/></mxCell><mxCell id="X3iBoTwYunZCs_lj_990-26" value="# width_: int" style="text;align=left;verticalAlign=top;spacingLeft=4;spacingRight=4;overflow=hidden;rotatable=0;points=[[0,0.5],[1,0.5]];portConstraint=eastwest;rounded=0;shadow=0;html=0;" parent="X3iBoTwYunZCs_lj_990-24" vertex="1"><mxGeometry y="52" width="310" height="26" as="geometry"/></mxCell><mxCell id="X3iBoTwYunZCs_lj_990-34" value="# height_: int" style="text;align=left;verticalAlign=top;spacingLeft=4;spacingRight=4;overflow=hidden;rotatable=0;points=[[0,0.5],[1,0.5]];portConstraint=eastwest;rounded=0;shadow=0;html=0;" parent="X3iBoTwYunZCs_lj_990-24" vertex="1"><mxGeometry y="78" width="310" height="26" as="geometry"/></mxCell><mxCell id="X3iBoTwYunZCs_lj_990-27" value="" style="line;html=1;strokeWidth=1;align=left;verticalAlign=middle;spacingTop=-1;spacingLeft=3;spacingRight=3;rotatable=0;labelPosition=right;points=[];portConstraint=eastwest;" parent="X3iBoTwYunZCs_lj_990-24" vertex="1"><mxGeometry y="104" width="310" height="8" as="geometry"/></mxCell><mxCell id="X3iBoTwYunZCs_lj_990-28" value="+ getCell(Point): const Cell*" style="text;align=left;verticalAlign=top;spacingLeft=4;spacingRight=4;overflow=hidden;rotatable=0;points=[[0,0.5],[1,0.5]];portConstraint=eastwest;" parent="X3iBoTwYunZCs_lj_990-24" vertex="1"><mxGeometry y="112" width="310" height="26" as="geometry"/></mxCell><mxCell id="X3iBoTwYunZCs_lj_990-29" value="+ getWidth(): int" style="text;align=left;verticalAlign=top;spacingLeft=4;spacingRight=4;overflow=hidden;rotatable=0;points=[[0,0.5],[1,0.5]];portConstraint=eastwest;" parent="X3iBoTwYunZCs_lj_990-24" vertex="1"><mxGeometry y="138" width="310" height="26" as="geometry"/></mxCell><mxCell id="X3iBoTwYunZCs_lj_990-30" value="+ getHeight(): int" style="text;align=left;verticalAlign=top;spacingLeft=4;spacingRight=4;overflow=hidden;rotatable=0;points=[[0,0.5],[1,0.5]];portConstraint=eastwest;" parent="X3iBoTwYunZCs_lj_990-24" vertex="1"><mxGeometry y="164" width="310" height="26" as="geometry"/></mxCell><mxCell id="X3iBoTwYunZCs_lj_990-31" value="+ getMoving(Point, Point): Point" style="text;align=left;verticalAlign=top;spacingLeft=4;spacingRight=4;overflow=hidden;rotatable=0;points=[[0,0.5],[1,0.5]];portConstraint=eastwest;" parent="X3iBoTwYunZCs_lj_990-24" vertex="1"><mxGeometry y="190" width="310" height="26" as="geometry"/></mxCell><mxCell id="X3iBoTwYunZCs_lj_990-38" value="engine::Cell" style="swimlane;fontStyle=0;align=center;verticalAlign=top;childLayout=stackLayout;horizontal=1;startSize=26;horizontalStack=0;resizeParent=1;resizeLast=0;collapsible=1;marginBottom=0;rounded=0;shadow=0;strokeWidth=1;" parent="WIyWlLk6GJQsqaUBKTNV-1" vertex="1"><mxGeometry x="1122" y="759" width="310" height="268" as="geometry"><mxRectangle x="281" width="160" height="26" as="alternateBounds"/></mxGeometry></mxCell><mxCell id="X3iBoTwYunZCs_lj_990-39" value="# listener_: events::IEvent*" style="text;align=left;verticalAlign=top;spacingLeft=4;spacingRight=4;overflow=hidden;rotatable=0;points=[[0,0.5],[1,0.5]];portConstraint=eastwest;" parent="X3iBoTwYunZCs_lj_990-38" vertex="1"><mxGeometry y="26" width="310" height="26" as="geometry"/></mxCell><mxCell id="X3iBoTwYunZCs_lj_990-40" value="# passable_: bool" style="text;align=left;verticalAlign=top;spacingLeft=4;spacingRight=4;overflow=hidden;rotatable=0;points=[[0,0.5],[1,0.5]];portConstraint=eastwest;rounded=0;shadow=0;html=0;" parent="X3iBoTwYunZCs_lj_990-38" vertex="1"><mxGeometry y="52" width="310" height="26" as="geometry"/></mxCell><mxCell id="X3iBoTwYunZCs_lj_990-41" value="# position_: Point" style="text;align=left;verticalAlign=top;spacingLeft=4;spacingRight=4;overflow=hidden;rotatable=0;points=[[0,0.5],[1,0.5]];portConstraint=eastwest;rounded=0;shadow=0;html=0;" parent="X3iBoTwYunZCs_lj_990-38" vertex="1"><mxGeometry y="78" width="310" height="26" as="geometry"/></mxCell><mxCell id="X3iBoTwYunZCs_lj_990-42" value="" style="line;html=1;strokeWidth=1;align=left;verticalAlign=middle;spacingTop=-1;spacingLeft=3;spacingRight=3;rotatable=0;labelPosition=right;points=[];portConstraint=eastwest;" parent="X3iBoTwYunZCs_lj_990-38" vertex="1"><mxGeometry y="104" width="310" height="8" as="geometry"/></mxCell><mxCell id="X3iBoTwYunZCs_lj_990-43" value="+ addListener(events::IEvent*): void&#10;" style="text;align=left;verticalAlign=top;spacingLeft=4;spacingRight=4;overflow=hidden;rotatable=0;points=[[0,0.5],[1,0.5]];portConstraint=eastwest;" parent="X3iBoTwYunZCs_lj_990-38" vertex="1"><mxGeometry y="112" width="310" height="26" as="geometry"/></mxCell><mxCell id="X3iBoTwYunZCs_lj_990-44" value="+ isPassable(): bool" style="text;align=left;verticalAlign=top;spacingLeft=4;spacingRight=4;overflow=hidden;rotatable=0;points=[[0,0.5],[1,0.5]];portConstraint=eastwest;" parent="X3iBoTwYunZCs_lj_990-38" vertex="1"><mxGeometry y="138" width="310" height="26" as="geometry"/></mxCell><mxCell id="X3iBoTwYunZCs_lj_990-45" value="+ getPosition(): Point" style="text;align=left;verticalAlign=top;spacingLeft=4;spacingRight=4;overflow=hidden;rotatable=0;points=[[0,0.5],[1,0.5]];portConstraint=eastwest;" parent="X3iBoTwYunZCs_lj_990-38" vertex="1"><mxGeometry y="164" width="310" height="26" as="geometry"/></mxCell><mxCell id="X3iBoTwYunZCs_lj_990-46" value="+ dispatchListener(): void" style="text;align=left;verticalAlign=top;spacingLeft=4;spacingRight=4;overflow=hidden;rotatable=0;points=[[0,0.5],[1,0.5]];portConstraint=eastwest;" parent="X3iBoTwYunZCs_lj_990-38" vertex="1"><mxGeometry y="190" width="310" height="26" as="geometry"/></mxCell><mxCell id="X3iBoTwYunZCs_lj_990-50" value="+ removeListener(): void" style="text;align=left;verticalAlign=top;spacingLeft=4;spacingRight=4;overflow=hidden;rotatable=0;points=[[0,0.5],[1,0.5]];portConstraint=eastwest;" parent="X3iBoTwYunZCs_lj_990-38" vertex="1"><mxGeometry y="216" width="310" height="26" as="geometry"/></mxCell><mxCell id="X3iBoTwYunZCs_lj_990-51" value="+ changeState(bool): void" style="text;align=left;verticalAlign=top;spacingLeft=4;spacingRight=4;overflow=hidden;rotatable=0;points=[[0,0.5],[1,0.5]];portConstraint=eastwest;" parent="X3iBoTwYunZCs_lj_990-38" vertex="1"><mxGeometry y="242" width="310" height="26" as="geometry"/></mxCell><mxCell id="X3iBoTwYunZCs_lj_990-55" value="«interface»&#10;IEvent" style="swimlane;fontStyle=0;childLayout=stackLayout;horizontal=1;startSize=40;fillColor=none;horizontalStack=0;resizeParent=1;resizeParentMax=0;resizeLast=0;collapsible=1;marginBottom=0;" parent="WIyWlLk6GJQsqaUBKTNV-1" vertex="1"><mxGeometry x="1598" y="759" width="140" height="66" as="geometry"/></mxCell><mxCell id="X3iBoTwYunZCs_lj_990-56" value="+ dispatch(Point): void" style="text;strokeColor=none;fillColor=none;align=left;verticalAlign=top;spacingLeft=4;spacingRight=4;overflow=hidden;rotatable=0;points=[[0,0.5],[1,0.5]];portConstraint=eastwest;" parent="X3iBoTwYunZCs_lj_990-55" vertex="1"><mxGeometry y="40" width="140" height="26" as="geometry"/></mxCell><mxCell id="X3iBoTwYunZCs_lj_990-60" value="" style="endArrow=open;endSize=12;dashed=1;html=1;rounded=0;" parent="WIyWlLk6GJQsqaUBKTNV-1" source="X3iBoTwYunZCs_lj_990-38" target="X3iBoTwYunZCs_lj_990-55" edge="1"><mxGeometry width="160" relative="1" as="geometry"><mxPoint x="730" y="780" as="sourcePoint"/><mxPoint x="890" y="780" as="targetPoint"/></mxGeometry></mxCell><mxCell id="X3iBoTwYunZCs_lj_990-66" value="engine::Creature" style="swimlane;fontStyle=0;align=center;verticalAlign=top;childLayout=stackLayout;horizontal=1;startSize=26;horizontalStack=0;resizeParent=1;resizeLast=0;collapsible=1;marginBottom=0;rounded=0;shadow=0;strokeWidth=1;" parent="WIyWlLk6GJQsqaUBKTNV-1" vertex="1"><mxGeometry x="1901" y="90" width="310" height="216" as="geometry"><mxRectangle x="281" width="160" height="26" as="alternateBounds"/></mxGeometry></mxCell><mxCell id="X3iBoTwYunZCs_lj_990-67" value="# hp_: std::vector&lt;int&gt;" style="text;align=left;verticalAlign=top;spacingLeft=4;spacingRight=4;overflow=hidden;rotatable=0;points=[[0,0.5],[1,0.5]];portConstraint=eastwest;" parent="X3iBoTwYunZCs_lj_990-66" vertex="1"><mxGeometry y="26" width="310" height="26" as="geometry"/></mxCell><mxCell id="X3iBoTwYunZCs_lj_990-68" value="# beat_price_: int" style="text;align=left;verticalAlign=top;spacingLeft=4;spacingRight=4;overflow=hidden;rotatable=0;points=[[0,0.5],[1,0.5]];portConstraint=eastwest;rounded=0;shadow=0;html=0;" parent="X3iBoTwYunZCs_lj_990-66" vertex="1"><mxGeometry y="52" width="310" height="26" as="geometry"/></mxCell><mxCell id="X3iBoTwYunZCs_lj_990-74" value="# damage_: int" style="text;align=left;verticalAlign=top;spacingLeft=4;spacingRight=4;overflow=hidden;rotatable=0;points=[[0,0.5],[1,0.5]];portConstraint=eastwest;rounded=0;shadow=0;html=0;" parent="X3iBoTwYunZCs_lj_990-66" vertex="1"><mxGeometry y="78" width="310" height="26" as="geometry"/></mxCell><mxCell id="X3iBoTwYunZCs_lj_990-69" value="" style="line;html=1;strokeWidth=1;align=left;verticalAlign=middle;spacingTop=-1;spacingLeft=3;spacingRight=3;rotatable=0;labelPosition=right;points=[];portConstraint=eastwest;" parent="X3iBoTwYunZCs_lj_990-66" vertex="1"><mxGeometry y="104" width="310" height="8" as="geometry"/></mxCell><mxCell id="X3iBoTwYunZCs_lj_990-70" value="+ getHit(int): void" style="text;align=left;verticalAlign=top;spacingLeft=4;spacingRight=4;overflow=hidden;rotatable=0;points=[[0,0.5],[1,0.5]];portConstraint=eastwest;" parent="X3iBoTwYunZCs_lj_990-66" vertex="1"><mxGeometry y="112" width="310" height="26" as="geometry"/></mxCell><mxCell id="X3iBoTwYunZCs_lj_990-75" value="+ heal(int, bool): void" style="text;align=left;verticalAlign=top;spacingLeft=4;spacingRight=4;overflow=hidden;rotatable=0;points=[[0,0.5],[1,0.5]];portConstraint=eastwest;" parent="X3iBoTwYunZCs_lj_990-66" vertex="1"><mxGeometry y="138" width="310" height="26" as="geometry"/></mxCell><mxCell id="X3iBoTwYunZCs_lj_990-77" value="+ setDamage(int): void" style="text;align=left;verticalAlign=top;spacingLeft=4;spacingRight=4;overflow=hidden;rotatable=0;points=[[0,0.5],[1,0.5]];portConstraint=eastwest;" parent="X3iBoTwYunZCs_lj_990-66" vertex="1"><mxGeometry y="164" width="310" height="26" as="geometry"/></mxCell><mxCell id="X3iBoTwYunZCs_lj_990-76" value="+ beat(): int" style="text;align=left;verticalAlign=top;spacingLeft=4;spacingRight=4;overflow=hidden;rotatable=0;points=[[0,0.5],[1,0.5]];portConstraint=eastwest;" parent="X3iBoTwYunZCs_lj_990-66" vertex="1"><mxGeometry y="190" width="310" height="26" as="geometry"/></mxCell><mxCell id="X3iBoTwYunZCs_lj_990-88" value="engine::Player" style="swimlane;fontStyle=0;align=center;verticalAlign=top;childLayout=stackLayout;horizontal=1;startSize=26;horizontalStack=0;resizeParent=1;resizeLast=0;collapsible=1;marginBottom=0;rounded=0;shadow=0;strokeWidth=1;" parent="WIyWlLk6GJQsqaUBKTNV-1" vertex="1"><mxGeometry x="1901" y="417" width="310" height="113" as="geometry"><mxRectangle x="281" width="160" height="26" as="alternateBounds"/></mxGeometry></mxCell><mxCell id="X3iBoTwYunZCs_lj_990-89" value="# stamina_: std::vector&lt;int&gt;" style="text;align=left;verticalAlign=top;spacingLeft=4;spacingRight=4;overflow=hidden;rotatable=0;points=[[0,0.5],[1,0.5]];portConstraint=eastwest;" parent="X3iBoTwYunZCs_lj_990-88" vertex="1"><mxGeometry y="26" width="310" height="26" as="geometry"/></mxCell><mxCell id="X3iBoTwYunZCs_lj_990-92" value="" style="line;html=1;strokeWidth=1;align=left;verticalAlign=middle;spacingTop=-1;spacingLeft=3;spacingRight=3;rotatable=0;labelPosition=right;points=[];portConstraint=eastwest;" parent="X3iBoTwYunZCs_lj_990-88" vertex="1"><mxGeometry y="52" width="310" height="8" as="geometry"/></mxCell><mxCell id="X3iBoTwYunZCs_lj_990-94" value="+ recoverStamina(int, bool): void" style="text;align=left;verticalAlign=top;spacingLeft=4;spacingRight=4;overflow=hidden;rotatable=0;points=[[0,0.5],[1,0.5]];portConstraint=eastwest;" parent="X3iBoTwYunZCs_lj_990-88" vertex="1"><mxGeometry y="60" width="310" height="26" as="geometry"/></mxCell><mxCell id="X3iBoTwYunZCs_lj_990-96" value="+ beat(): int" style="text;align=left;verticalAlign=top;spacingLeft=4;spacingRight=4;overflow=hidden;rotatable=0;points=[[0,0.5],[1,0.5]];portConstraint=eastwest;" parent="X3iBoTwYunZCs_lj_990-88" vertex="1"><mxGeometry y="86" width="310" height="26" as="geometry"/></mxCell><mxCell id="X3iBoTwYunZCs_lj_990-98" value="" style="endArrow=block;endSize=16;endFill=0;html=1;rounded=0;" parent="WIyWlLk6GJQsqaUBKTNV-1" source="X3iBoTwYunZCs_lj_990-88" target="X3iBoTwYunZCs_lj_990-66" edge="1"><mxGeometry width="160" relative="1" as="geometry"><mxPoint x="1270" y="330" as="sourcePoint"/><mxPoint x="1430" y="330" as="targetPoint"/></mxGeometry></mxCell><mxCell id="X3iBoTwYunZCs_lj_990-105" value="view::KeyboardHandler" style="swimlane;fontStyle=0;align=center;verticalAlign=top;childLayout=stackLayout;horizontal=1;startSize=26;horizontalStack=0;resizeParent=1;resizeLast=0;collapsible=1;marginBottom=0;rounded=0;shadow=0;strokeWidth=1;" parent="WIyWlLk6GJQsqaUBKTNV-1" vertex="1"><mxGeometry x="18" y="417" width="266" height="86" as="geometry"><mxRectangle x="281" width="160" height="26" as="alternateBounds"/></mxGeometry></mxCell><mxCell id="X3iBoTwYunZCs_lj_990-107" value="# game_mediator_: GameMediator*" style="text;align=left;verticalAlign=top;spacingLeft=4;spacingRight=4;overflow=hidden;rotatable=0;points=[[0,0.5],[1,0.5]];portConstraint=eastwest;rounded=0;shadow=0;html=0;" parent="X3iBoTwYunZCs_lj_990-105" vertex="1"><mxGeometry y="26" width="266" height="26" as="geometry"/></mxCell><mxCell id="X3iBoTwYunZCs_lj_990-110" value="" style="line;html=1;strokeWidth=1;align=left;verticalAlign=middle;spacingTop=-1;spacingLeft=3;spacingRight=3;rotatable=0;labelPosition=right;points=[];portConstraint=eastwest;" parent="X3iBoTwYunZCs_lj_990-105" vertex="1"><mxGeometry y="52" width="266" height="8" as="geometry"/></mxCell><mxCell id="X3iBoTwYunZCs_lj_990-111" value="+ handle(sf::Keyboard::Key key): void" style="text;align=left;verticalAlign=top;spacingLeft=4;spacingRight=4;overflow=hidden;rotatable=0;points=[[0,0.5],[1,0.5]];portConstraint=eastwest;" parent="X3iBoTwYunZCs_lj_990-105" vertex="1"><mxGeometry y="60" width="266" height="26" as="geometry"/></mxCell><mxCell id="X3iBoTwYunZCs_lj_990-113" value="" style="endArrow=diamondThin;endFill=1;endSize=24;html=1;rounded=0;exitX=0.5;exitY=0;exitDx=0;exitDy=0;" parent="WIyWlLk6GJQsqaUBKTNV-1" source="X3iBoTwYunZCs_lj_990-105" target="X3iBoTwYunZCs_lj_990-8" edge="1"><mxGeometry width="160" relative="1" as="geometry"><mxPoint x="654" y="421" as="sourcePoint"/><mxPoint x="814" y="421" as="targetPoint"/></mxGeometry></mxCell><mxCell id="X3iBoTwYunZCs_lj_990-114" value="" style="endArrow=diamondThin;endFill=1;endSize=24;html=1;rounded=0;" parent="WIyWlLk6GJQsqaUBKTNV-1" source="X3iBoTwYunZCs_lj_990-66" target="X3iBoTwYunZCs_lj_990-12" edge="1"><mxGeometry width="160" relative="1" as="geometry"><mxPoint x="1260" y="527" as="sourcePoint"/><mxPoint x="1327.8305084745764" y="481" as="targetPoint"/></mxGeometry></mxCell><mxCell id="X3iBoTwYunZCs_lj_990-115" value="" style="endArrow=diamondThin;endFill=1;endSize=24;html=1;rounded=0;" parent="WIyWlLk6GJQsqaUBKTNV-1" source="X3iBoTwYunZCs_lj_990-88" target="X3iBoTwYunZCs_lj_990-12" edge="1"><mxGeometry width="160" relative="1" as="geometry"><mxPoint x="1470" y="315.01244813278004" as="sourcePoint"/><mxPoint x="1298" y="344.98755186721996" as="targetPoint"/></mxGeometry></mxCell><mxCell id="X3iBoTwYunZCs_lj_990-116" value="" style="endArrow=diamondThin;endFill=1;endSize=24;html=1;rounded=0;" parent="WIyWlLk6GJQsqaUBKTNV-1" source="X3iBoTwYunZCs_lj_990-3" target="zkfFHV4jXpPFQw0GAbJ--6" edge="1"><mxGeometry width="160" relative="1" as="geometry"><mxPoint x="844" y="301.00244813278005" as="sourcePoint"/><mxPoint x="672" y="330.97755186722" as="targetPoint"/><Array as="points"/></mxGeometry></mxCell><mxCell id="X3iBoTwYunZCs_lj_990-118" value="" style="endArrow=diamondThin;endFill=1;endSize=24;html=1;rounded=0;" parent="WIyWlLk6GJQsqaUBKTNV-1" source="X3iBoTwYunZCs_lj_990-24" target="zkfFHV4jXpPFQw0GAbJ--6" edge="1"><mxGeometry width="160" relative="1" as="geometry"><mxPoint x="760" y="371.00244813278005" as="sourcePoint"/><mxPoint x="588" y="400.97755186722" as="targetPoint"/></mxGeometry></mxCell><mxCell id="X3iBoTwYunZCs_lj_990-119" value="" style="endArrow=diamondThin;endFill=1;endSize=24;html=1;rounded=0;exitX=0.5;exitY=0;exitDx=0;exitDy=0;" parent="WIyWlLk6GJQsqaUBKTNV-1" source="X3iBoTwYunZCs_lj_990-38" target="X3iBoTwYunZCs_lj_990-24" edge="1"><mxGeometry width="160" relative="1" as="geometry"><mxPoint x="1274" y="689.00244813278" as="sourcePoint"/><mxPoint x="1102" y="718.97755186722" as="targetPoint"/></mxGeometry></mxCell><mxCell id="X3iBoTwYunZCs_lj_990-120" value="view::DrawManager" style="swimlane;fontStyle=0;align=center;verticalAlign=top;childLayout=stackLayout;horizontal=1;startSize=26;horizontalStack=0;resizeParent=1;resizeLast=0;collapsible=1;marginBottom=0;rounded=0;shadow=0;strokeWidth=1;" parent="WIyWlLk6GJQsqaUBKTNV-1" vertex="1"><mxGeometry x="392" y="417" width="302" height="242" as="geometry"><mxRectangle x="281" width="160" height="26" as="alternateBounds"/></mxGeometry></mxCell><mxCell id="X3iBoTwYunZCs_lj_990-121" value="# window_: sf::RenderWindow&amp;" style="text;align=left;verticalAlign=top;spacingLeft=4;spacingRight=4;overflow=hidden;rotatable=0;points=[[0,0.5],[1,0.5]];portConstraint=eastwest;" parent="X3iBoTwYunZCs_lj_990-120" vertex="1"><mxGeometry y="26" width="302" height="26" as="geometry"/></mxCell><mxCell id="X3iBoTwYunZCs_lj_990-122" value="# game_mediator_: GameMediator*" style="text;align=left;verticalAlign=top;spacingLeft=4;spacingRight=4;overflow=hidden;rotatable=0;points=[[0,0.5],[1,0.5]];portConstraint=eastwest;rounded=0;shadow=0;html=0;" parent="X3iBoTwYunZCs_lj_990-120" vertex="1"><mxGeometry y="52" width="302" height="26" as="geometry"/></mxCell><mxCell id="X3iBoTwYunZCs_lj_990-123" value="# texture_manager_: TextureManager*" style="text;align=left;verticalAlign=top;spacingLeft=4;spacingRight=4;overflow=hidden;rotatable=0;points=[[0,0.5],[1,0.5]];portConstraint=eastwest;rounded=0;shadow=0;html=0;" parent="X3iBoTwYunZCs_lj_990-120" vertex="1"><mxGeometry y="78" width="302" height="26" as="geometry"/></mxCell><mxCell id="X3iBoTwYunZCs_lj_990-135" value="# CELL_SIZE_: const float" style="text;align=left;verticalAlign=top;spacingLeft=4;spacingRight=4;overflow=hidden;rotatable=0;points=[[0,0.5],[1,0.5]];portConstraint=eastwest;rounded=0;shadow=0;html=0;" parent="X3iBoTwYunZCs_lj_990-120" vertex="1"><mxGeometry y="104" width="302" height="26" as="geometry"/></mxCell><mxCell id="X3iBoTwYunZCs_lj_990-125" value="" style="line;html=1;strokeWidth=1;align=left;verticalAlign=middle;spacingTop=-1;spacingLeft=3;spacingRight=3;rotatable=0;labelPosition=right;points=[];portConstraint=eastwest;" parent="X3iBoTwYunZCs_lj_990-120" vertex="1"><mxGeometry y="130" width="302" height="8" as="geometry"/></mxCell><mxCell id="X3iBoTwYunZCs_lj_990-130" value="+ draw(): void" style="text;align=left;verticalAlign=top;spacingLeft=4;spacingRight=4;overflow=hidden;rotatable=0;points=[[0,0.5],[1,0.5]];portConstraint=eastwest;" parent="X3iBoTwYunZCs_lj_990-120" vertex="1"><mxGeometry y="138" width="302" height="26" as="geometry"/></mxCell><mxCell id="X3iBoTwYunZCs_lj_990-133" value="# drawCell(Point, const engine::Cell*): void" style="text;align=left;verticalAlign=top;spacingLeft=4;spacingRight=4;overflow=hidden;rotatable=0;points=[[0,0.5],[1,0.5]];portConstraint=eastwest;" parent="X3iBoTwYunZCs_lj_990-120" vertex="1"><mxGeometry y="164" width="302" height="26" as="geometry"/></mxCell><mxCell id="X3iBoTwYunZCs_lj_990-134" value="# drawCreature(Point, engine::CreatureWrapper): void" style="text;align=left;verticalAlign=top;spacingLeft=4;spacingRight=4;overflow=hidden;rotatable=0;points=[[0,0.5],[1,0.5]];portConstraint=eastwest;" parent="X3iBoTwYunZCs_lj_990-120" vertex="1"><mxGeometry y="190" width="302" height="26" as="geometry"/></mxCell><mxCell id="X3iBoTwYunZCs_lj_990-126" value="# moveToCellCenter(sf::Sprite&amp;, Point, float): void" style="text;align=left;verticalAlign=top;spacingLeft=4;spacingRight=4;overflow=hidden;rotatable=0;points=[[0,0.5],[1,0.5]];portConstraint=eastwest;" parent="X3iBoTwYunZCs_lj_990-120" vertex="1"><mxGeometry y="216" width="302" height="26" as="geometry"/></mxCell><mxCell id="X3iBoTwYunZCs_lj_990-127" value="" style="endArrow=diamondThin;endFill=1;endSize=24;html=1;rounded=0;" parent="WIyWlLk6GJQsqaUBKTNV-1" source="X3iBoTwYunZCs_lj_990-120" target="X3iBoTwYunZCs_lj_990-3" edge="1"><mxGeometry width="160" relative="1" as="geometry"><mxPoint x="146.00000000000023" y="502" as="sourcePoint"/><mxPoint x="387.5737704918033" y="454" as="targetPoint"/></mxGeometry></mxCell><mxCell id="X3iBoTwYunZCs_lj_990-136" value="view::TextureManager" style="swimlane;fontStyle=0;align=center;verticalAlign=top;childLayout=stackLayout;horizontal=1;startSize=26;horizontalStack=0;resizeParent=1;resizeLast=0;collapsible=1;marginBottom=0;rounded=0;shadow=0;strokeWidth=1;" parent="WIyWlLk6GJQsqaUBKTNV-1" vertex="1"><mxGeometry x="392" y="759" width="302" height="138" as="geometry"><mxRectangle x="281" width="160" height="26" as="alternateBounds"/></mxGeometry></mxCell><mxCell id="X3iBoTwYunZCs_lj_990-137" value="# loaded_textures_: std::map&lt;std::string, sf::Texture*&gt;" style="text;align=left;verticalAlign=top;spacingLeft=4;spacingRight=4;overflow=hidden;rotatable=0;points=[[0,0.5],[1,0.5]];portConstraint=eastwest;" parent="X3iBoTwYunZCs_lj_990-136" vertex="1"><mxGeometry y="26" width="302" height="26" as="geometry"/></mxCell><mxCell id="X3iBoTwYunZCs_lj_990-142" value="" style="line;html=1;strokeWidth=1;align=left;verticalAlign=middle;spacingTop=-1;spacingLeft=3;spacingRight=3;rotatable=0;labelPosition=right;points=[];portConstraint=eastwest;" parent="X3iBoTwYunZCs_lj_990-136" vertex="1"><mxGeometry y="52" width="302" height="8" as="geometry"/></mxCell><mxCell id="X3iBoTwYunZCs_lj_990-143" value="+ getTexture(const std::string&amp;): sf::Texture*" style="text;align=left;verticalAlign=top;spacingLeft=4;spacingRight=4;overflow=hidden;rotatable=0;points=[[0,0.5],[1,0.5]];portConstraint=eastwest;" parent="X3iBoTwYunZCs_lj_990-136" vertex="1"><mxGeometry y="60" width="302" height="26" as="geometry"/></mxCell><mxCell id="X3iBoTwYunZCs_lj_990-147" value="+ getSprite(const std::string&amp;, sf::IntRect): sf::Sprite" style="text;align=left;verticalAlign=top;spacingLeft=4;spacingRight=4;overflow=hidden;rotatable=0;points=[[0,0.5],[1,0.5]];portConstraint=eastwest;" parent="X3iBoTwYunZCs_lj_990-136" vertex="1"><mxGeometry y="86" width="302" height="26" as="geometry"/></mxCell><mxCell id="X3iBoTwYunZCs_lj_990-144" value="# loadTexture(const std::string&amp;): sf::Texture*" style="text;align=left;verticalAlign=top;spacingLeft=4;spacingRight=4;overflow=hidden;rotatable=0;points=[[0,0.5],[1,0.5]];portConstraint=eastwest;" parent="X3iBoTwYunZCs_lj_990-136" vertex="1"><mxGeometry y="112" width="302" height="26" as="geometry"/></mxCell><mxCell id="X3iBoTwYunZCs_lj_990-148" value="" style="endArrow=diamondThin;endFill=1;endSize=24;html=1;rounded=0;" parent="WIyWlLk6GJQsqaUBKTNV-1" source="X3iBoTwYunZCs_lj_990-136" target="X3iBoTwYunZCs_lj_990-120" edge="1"><mxGeometry width="160" relative="1" as="geometry"><mxPoint x="358" y="793" as="sourcePoint"/><mxPoint x="520" y="521" as="targetPoint"/></mxGeometry></mxCell><mxCell id="X3iBoTwYunZCs_lj_990-149" value="" style="endArrow=open;endFill=1;endSize=12;html=1;rounded=0;" parent="WIyWlLk6GJQsqaUBKTNV-1" source="X3iBoTwYunZCs_lj_990-120" target="X3iBoTwYunZCs_lj_990-24" edge="1"><mxGeometry width="160" relative="1" as="geometry"><mxPoint x="753" y="550" as="sourcePoint"/><mxPoint x="913" y="550" as="targetPoint"/></mxGeometry></mxCell><mxCell id="X3iBoTwYunZCs_lj_990-170" value="" style="endArrow=diamondThin;endFill=1;endSize=24;html=1;rounded=0;" parent="WIyWlLk6GJQsqaUBKTNV-1" source="X3iBoTwYunZCs_lj_990-12" target="zkfFHV4jXpPFQw0GAbJ--6" edge="1"><mxGeometry width="160" relative="1" as="geometry"><mxPoint x="902.0099009900991" y="530" as="sourcePoint"/><mxPoint x="867.5247524752476" y="368" as="targetPoint"/></mxGeometry></mxCell><mxCell id="X3iBoTwYunZCs_lj_990-171" value="" style="endArrow=open;endSize=12;dashed=1;html=1;rounded=0;" parent="WIyWlLk6GJQsqaUBKTNV-1" source="X3iBoTwYunZCs_lj_990-120" target="zkfFHV4jXpPFQw0GAbJ--6" edge="1"><mxGeometry x="0.0625" y="-14" width="160" relative="1" as="geometry"><mxPoint x="233" y="709" as="sourcePoint"/><mxPoint x="393" y="709" as="targetPoint"/><mxPoint as="offset"/></mxGeometry></mxCell><mxCell id="X3iBoTwYunZCs_lj_990-172" value="" style="endArrow=open;endSize=12;dashed=1;html=1;rounded=0;" parent="WIyWlLk6GJQsqaUBKTNV-1" source="X3iBoTwYunZCs_lj_990-3" target="zkfFHV4jXpPFQw0GAbJ--6" edge="1"><mxGeometry x="0.0625" y="-14" width="160" relative="1" as="geometry"><mxPoint x="647" y="359.94752186588926" as="sourcePoint"/><mxPoint x="700" y="325.18075801749274" as="targetPoint"/><mxPoint as="offset"/><Array as="points"><mxPoint x="420" y="116"/></Array></mxGeometry></mxCell><mxCell id="X3iBoTwYunZCs_lj_990-173" value="" style="endArrow=open;endSize=12;dashed=1;html=1;rounded=0;" parent="WIyWlLk6GJQsqaUBKTNV-1" source="X3iBoTwYunZCs_lj_990-105" target="zkfFHV4jXpPFQw0GAbJ--6" edge="1"><mxGeometry x="0.0625" y="-14" width="160" relative="1" as="geometry"><mxPoint x="657" y="369.94752186588926" as="sourcePoint"/><mxPoint x="710" y="335.18075801749274" as="targetPoint"/><mxPoint as="offset"/><Array as="points"/></mxGeometry></mxCell><mxCell id="X3iBoTwYunZCs_lj_990-178" value="" style="endArrow=open;endFill=1;endSize=12;html=1;rounded=0;" parent="WIyWlLk6GJQsqaUBKTNV-1" source="zkfFHV4jXpPFQw0GAbJ--6" target="X3iBoTwYunZCs_lj_990-88" edge="1"><mxGeometry width="160" relative="1" as="geometry"><mxPoint x="654" y="743.5124223602484" as="sourcePoint"/><mxPoint x="992" y="641.692546583851" as="targetPoint"/></mxGeometry></mxCell></root></mxGraphModel></diagram></mxfile>